<svg xmlns="http://www.w3.org/2000/svg" viewBox="-70 220 615 615">
  <path fill="#ffb423" d="M434,472C409.73,585.38,142,832.65,142,832.65s-6.53-15.3-16.54-40.47l78.88-368.09q6.14-28.59,29.15-23.66,22.77,4.88,18.31,25.72-4.87,22.77-34.69,16.39l-18.59,86.74,15,3.46q56.7,12.15,90.77-9.69,37.27-23.68,47.7-72.39,10.75-50.15-16.27-91.43t-77.41-52.07a137.36,137.36,0,0,0-56.47-.19q-28.61,5.79-50.26,21.67Q132.22,343,121.41,362.1t-17.67,51.09L61.08,612.27C33.86,524.76,12.74,433.33,23.32,384c24.31-113.42,136-185.66,249.37-161.35S458.34,358.55,434,472Z"/>
</svg>
