<svg xmlns="http://www.w3.org/2000/svg" viewBox="0 210 1510 640">
  <defs>
    <style>
      .t1{font-size:187.67px;}
      .t1,.t2{fill:#fff;font-family:HelveticaNeueLTStd-BlkExO,Helvetica Neue LT Std;}
      .t2{font-size:235.07px;}
    </style>
  </defs>
  <text class="t1" transform="translate(588.34 555.94)">PEOPLE &amp;</text>
  <text class="t2" transform="translate(540.94 752.46)">PLACES</text>
  <path fill="#fff" d="M434,472C409.73,585.38,142,832.65,142,832.65s-6.53-15.3-16.54-40.47l78.88-368.09q6.14-28.59,29.15-23.66,22.77,4.88,18.31,25.72-4.87,22.77-34.69,16.39l-18.58,86.74,15,3.46q56.7,12.15,90.77-9.69,37.27-23.68,47.7-72.39,10.75-50.15-16.27-91.43t-77.41-52.07a137.31,137.31,0,0,0-56.46-.19q-28.62,5.79-50.27,21.67Q132.22,343,121.41,362.1t-17.67,51.09L61.08,612.27C33.86,524.76,12.74,433.33,23.32,384c24.31-113.42,136-185.66,249.37-161.35S458.34,358.55,434,472Z"/>
</svg>
