<svg id="Layer_2" data-name="Layer 2" xmlns="http://www.w3.org/2000/svg" xmlns:xlink="http://www.w3.org/1999/xlink" viewBox="0 0 1920 1080"><defs><style>.cls-1{fill:none;}.cls-2{opacity:0.24;}.cls-3{clip-path:url(#clip-path);}.cls-4{fill:#fff;}.cls-5{clip-path:url(#clip-path-2);}.cls-6{fill:#ffb423;}</style><clipPath id="clip-path"><rect class="cls-1" x="0.22" y="-1100.05" width="1920" height="1080"/></clipPath><clipPath id="clip-path-2"><rect class="cls-1" x="1940.22" y="-1100.05" width="1920" height="1080"/></clipPath></defs><g class="cls-2"><g class="cls-3"><path class="cls-4" d="M747.65-566.3c-52.8,246.35-634.44,783.44-634.44,783.44S99,183.91,77.28,129.22L248.62-670.29q13.31-62.12,63.31-51.39,49.47,10.59,39.78,55.87-10.6,49.45-75.35,35.6L236-441.82l32.52,7.53q123.17,26.4,197.17-21.06,80.94-51.43,103.6-157.24Q592.64-721.51,534-811.17T365.81-924.27a298.08,298.08,0,0,0-122.65-.41Q181-912.11,134-877.61q-41.89,31.2-65.38,72.68T30.22-694L-62.45-261.55c-59.12-190.09-105-388.68-82-495.94,52.79-246.35,295.29-403.25,541.64-350.45S800.44-812.65,747.65-566.3Z"/></g></g><g class="cls-2"><g class="cls-5"><path class="cls-6" d="M2687.65-566.3c-52.8,246.35-634.44,783.44-634.44,783.44s-14.18-33.23-35.93-87.92l171.34-799.51q13.3-62.12,63.31-51.39,49.47,10.59,39.78,55.87-10.61,49.45-75.35,35.6L2176-441.82l32.52,7.53q123.16,26.4,197.17-21.06,80.94-51.43,103.6-157.24,23.35-108.92-35.33-198.58t-168.14-113.1a298.08,298.08,0,0,0-122.65-.41Q2121-912.11,2074-877.61q-41.89,31.2-65.38,72.68T1970.22-694l-92.67,432.43c-59.12-190.09-105-388.68-82-495.94,52.79-246.35,295.29-403.25,541.64-350.45S2740.44-812.65,2687.65-566.3Z"/></g></g><path class="cls-6" d="M1285.11,447.63c-40.86,190.66-491,606.35-491,606.35s-11-25.72-27.81-68.05L898.88,367.14q10.3-48.06,49-39.77,38.28,8.2,30.78,43.24-8.19,38.28-58.31,27.55L889.1,544l25.17,5.83q95.33,20.43,152.6-16.3,62.66-39.81,80.19-121.7,18.07-84.3-27.35-153.69T989.58,170.58a230.5,230.5,0,0,0-94.93-.32q-48.1,9.72-84.5,36.43-32.43,24.13-50.6,56.24t-29.7,85.88L658.12,683.49c-45.75-147.12-81.25-300.82-63.46-383.83C635.52,109,823.2-12.45,1013.87,28.42S1326,257,1285.11,447.63Z"/></svg>