<svg id="Layer_2" data-name="Layer 2" xmlns="http://www.w3.org/2000/svg" viewBox="0 0 1920 1080"><defs><style>.cls-1{fill:#262626;}</style></defs><path class="cls-1" d="M1303.61,450.39c-40.86,190.66-491,606.35-491,606.35s-11-25.72-27.81-68L917.38,369.9q10.3-48.06,49-39.77,38.28,8.21,30.78,43.24-8.19,38.28-58.31,27.55L907.6,546.73l25.17,5.83q95.33,20.43,152.6-16.3,62.66-39.81,80.19-121.7,18.07-84.3-27.35-153.69t-130.13-87.53a230.5,230.5,0,0,0-94.93-.32q-48.1,9.72-84.5,36.42-32.43,24.15-50.6,56.25t-29.7,85.88L676.62,686.25c-45.75-147.12-81.25-300.82-63.46-383.84C654,111.75,841.7-9.69,1032.37,31.17S1344.47,259.72,1303.61,450.39Z"/></svg>