<svg id="Layer_2" data-name="Layer 2" xmlns="http://www.w3.org/2000/svg" xmlns:xlink="http://www.w3.org/1999/xlink" viewBox="0 0 1920 1080"><defs><style>.cls-1{fill:none;}.cls-2{opacity:0.51;}.cls-3{opacity:0.24;}.cls-4{clip-path:url(#clip-path);}.cls-5{fill:#262626;}.cls-6{font-size:187.67px;}.cls-6,.cls-7,.cls-8{fill:#ffb423;}.cls-6,.cls-7{font-family:HelveticaNeueLTStd-BlkExO, Helvetica Neue LT Std;}.cls-7{font-size:235.07px;}</style><clipPath id="clip-path"><rect class="cls-1" x="1940.44" y="-1100.1" width="1920" height="1080"/></clipPath></defs><g class="cls-3"><g class="cls-4"><path class="cls-5" d="M2687.87-566.35c-52.8,246.35-634.44,783.44-634.44,783.44s-14.17-33.24-35.93-87.92l171.34-799.51q13.32-62.11,63.32-51.39,49.46,10.59,39.77,55.87-10.6,49.46-75.34,35.6l-40.38,188.39,32.52,7.53q123.17,26.4,197.17-21.06,80.94-51.44,103.61-157.24,23.34-108.92-35.34-198.58T2306-924.32a298.08,298.08,0,0,0-122.65-.41q-62.16,12.57-109.18,47.07-41.89,31.2-65.38,72.68t-38.38,111L1877.77-261.6c-59.12-190.09-105-388.68-82-495.94,52.79-246.35,295.29-403.25,541.64-350.46S2740.66-812.7,2687.87-566.35Z"/></g></g><text class="cls-6" transform="translate(588.34 555.94)">PEOPLE &amp;</text><text class="cls-7" transform="translate(540.94 752.46)">PLACES</text><path class="cls-8" d="M434,472C409.73,585.38,142,832.65,142,832.65s-6.53-15.3-16.54-40.47l78.88-368.09q6.14-28.59,29.15-23.66,22.77,4.88,18.31,25.72-4.87,22.77-34.69,16.39l-18.59,86.74,15,3.46q56.7,12.15,90.77-9.69,37.27-23.68,47.7-72.39,10.75-50.15-16.27-91.43t-77.41-52.07a137.36,137.36,0,0,0-56.47-.19q-28.61,5.79-50.26,21.67Q132.22,343,121.41,362.1t-17.67,51.09L61.08,612.27C33.86,524.76,12.74,433.33,23.32,384c24.31-113.42,136-185.66,249.37-161.35S458.34,358.55,434,472Z"/></svg>