<svg id="Layer_2" data-name="Layer 2" xmlns="http://www.w3.org/2000/svg" viewBox="0 0 1920 1080"><defs><style>.cls-1{font-size:187.67px;}.cls-1,.cls-2{fill:#262626;font-family:HelveticaNeueLTStd-BlkExO, Helvetica Neue LT Std;}.cls-2{font-size:235.07px;}.cls-3{fill:#ffb423;}</style></defs><text class="cls-1" transform="translate(597.59 558.7)">PEOPLE &amp;</text><text class="cls-2" transform="translate(550.19 755.22)">PLACES</text><path class="cls-3" d="M443.29,474.73C419,588.14,151.2,835.41,151.2,835.41s-6.53-15.3-16.54-40.48l78.88-368.08q6.14-28.59,29.15-23.66,22.77,4.88,18.31,25.72-4.87,22.77-34.69,16.39L207.72,532l15,3.46q56.7,12.15,90.77-9.69,37.27-23.68,47.7-72.39Q371.92,403.28,344.9,362t-77.41-52.07a137.31,137.31,0,0,0-56.46-.19q-28.62,5.79-50.27,21.67-19.29,14.37-30.1,33.46T113,415.94L70.33,615C43.11,527.51,22,436.08,32.57,386.71c24.31-113.42,136-185.66,249.37-161.35S467.59,361.31,443.29,474.73Z"/></svg>