<svg id="Layer_2" data-name="Layer 2" xmlns="http://www.w3.org/2000/svg" xmlns:xlink="http://www.w3.org/1999/xlink" viewBox="0 0 1920 1080"><defs><style>.cls-1{fill:none;}.cls-2{opacity:0.51;}.cls-3{opacity:0.24;}.cls-4{clip-path:url(#clip-path);}.cls-5,.cls-8,.cls-9{fill:#262626;}.cls-6{clip-path:url(#clip-path-2);}.cls-7{fill:#fff;}.cls-8{font-size:187.67px;}.cls-8,.cls-9{font-family:HelveticaNeueLTStd-BlkExO, Helvetica Neue LT Std;}.cls-9{font-size:235.07px;}</style><clipPath id="clip-path"><rect class="cls-1" x="0.44" y="-1100.1" width="1920" height="1080"/></clipPath><clipPath id="clip-path-2"><rect class="cls-1" x="1940.22" y="-1100.05" width="1920" height="1080"/></clipPath></defs><g class="cls-3"><g class="cls-4"><path class="cls-5" d="M747.87-566.35C695.07-320,113.43,217.09,113.43,217.09S99.26,183.85,77.5,129.17L248.84-670.34q13.32-62.11,63.32-51.39,49.45,10.59,39.77,55.87-10.6,49.46-75.34,35.6L236.21-441.87l32.52,7.53Q391.9-407.94,465.9-455.4q80.94-51.44,103.61-157.24,23.34-108.92-35.34-198.58T366-924.32a298.08,298.08,0,0,0-122.65-.41q-62.16,12.57-109.18,47.07Q92.31-846.46,68.82-805T30.44-694L-62.23-261.6c-59.12-190.09-105-388.68-82-495.94,52.79-246.35,295.29-403.25,541.64-350.46S800.66-812.7,747.87-566.35Z"/></g></g><g class="cls-3"><g class="cls-6"><path class="cls-7" d="M2687.65-566.3c-52.8,246.35-634.44,783.44-634.44,783.44s-14.18-33.23-35.93-87.92l171.34-799.51q13.3-62.12,63.31-51.39,49.47,10.59,39.78,55.87-10.61,49.45-75.35,35.6L2176-441.82l32.52,7.53q123.16,26.4,197.17-21.06,80.94-51.43,103.6-157.24,23.35-108.92-35.33-198.58t-168.14-113.1a298.08,298.08,0,0,0-122.65-.41Q2121-912.11,2074-877.61q-41.89,31.2-65.38,72.68T1970.22-694l-92.67,432.43c-59.12-190.09-105-388.68-82-495.94,52.79-246.35,295.29-403.25,541.64-350.45S2740.44-812.65,2687.65-566.3Z"/></g></g><text class="cls-8" transform="translate(588.34 555.94)">PEOPLE &amp;</text><text class="cls-9" transform="translate(540.94 752.46)">PLACES</text><path class="cls-5" d="M434,472C409.73,585.38,142,832.65,142,832.65s-6.53-15.3-16.54-40.47l78.88-368.09q6.14-28.59,29.15-23.66,22.77,4.88,18.31,25.72-4.87,22.77-34.69,16.39l-18.58,86.74,15,3.46q56.7,12.15,90.77-9.69,37.27-23.68,47.7-72.39,10.75-50.15-16.27-91.43t-77.41-52.07a137.31,137.31,0,0,0-56.46-.19q-28.62,5.79-50.27,21.67Q132.22,343,121.41,362.1t-17.67,51.09L61.08,612.27C33.86,524.76,12.74,433.33,23.32,384c24.31-113.42,136-185.66,249.37-161.35S458.34,358.55,434,472Z"/></svg>